PathFileType	4	(X/Y/Z)	D:\TRACE\spotREDO_2-26-24\spot_justBody_Motion_1_4-platform.trc
DataRate	CameraRate	NumFrames	NumMarkers	Units	OrigDataRate	OrigDataStartFrame	OrigNumFrames
100.00	100.00	      48	5	mm	100.00	876	      7000
Frame#	Time	Left_Front			Right_Front			Left_Aft			Right_Aft			Post			
		X1	Y1	Z1	X2	Y2	Z2	X3	Y3	Z3	X4	Y4	Z4	X5	Y5	Z5	

876	8.750	-656.02618	-24.94214	-580.49902	758.53113	-12.91008	-496.11743	-727.77209	26.88852	637.30078	842.52863	34.36547	640.63940	53.51330	587.38257	-1009.27740	
877	8.760	-656.68286	-25.09580	-580.56921	758.28809	-13.28383	-496.18661	-728.29382	27.05777	637.20404	842.07434	34.56911	640.66052	52.69921	586.83917	-1009.68231	
878	8.770	-657.31384	-25.31833	-580.68256	757.50452	-13.61303	-496.29944	-728.85223	27.19748	637.15381	841.52234	34.72809	640.71503	52.26216	586.55011	-1009.66528	
879	8.780	-657.96002	-25.64008	-580.73285	756.68817	-13.64114	-496.32605	-729.27905	27.34974	637.06970	840.80859	35.18709	640.51050	51.71673	586.25671	-1010.02808	
880	8.790	-658.56610	-25.78311	-580.72083	756.18439	-13.79838	-496.56467	-729.92847	27.65009	637.00812	840.37805	35.42626	640.38361	51.59961	586.07611	-1009.89166	
881	8.800	-659.07880	-26.06113	-580.67505	755.65436	-13.91074	-496.65311	-730.74756	27.66777	636.86237	840.03131	35.31565	640.32397	50.81324	585.64563	-1010.08954	
882	8.810	-659.63348	-26.27179	-580.78290	755.14911	-13.84007	-496.72409	-731.18219	27.95602	636.90967	839.21680	35.77559	640.15387	49.82367	585.20770	-1010.58966	
883	8.820	-660.32715	-26.41748	-580.95319	754.37793	-14.28249	-496.50964	-731.74426	28.77197	636.89380	838.32599	35.86566	640.09509	49.29488	584.98199	-1010.81238	
884	8.830	-660.80103	-26.86786	-580.97058	753.76886	-14.54716	-496.41843	-732.43634	28.57960	636.90015	837.94885	35.82745	640.18909	48.60955	584.41400	-1011.08130	
885	8.840	-661.58051	-26.95916	-581.08630	753.01508	-14.62955	-496.68207	-733.15039	28.49786	636.84717	837.46765	35.98432	640.14740	48.07149	584.16815	-1011.35730	
886	8.850	-662.22150	-26.97528	-581.23383	752.47498	-14.79455	-496.72403	-733.81824	28.60256	636.80878	836.53961	36.30099	640.13733	47.29689	583.92224	-1011.71094	
887	8.860	-662.96063	-27.20285	-581.06396	751.80829	-14.87465	-496.69510	-734.47906	29.01827	636.76569	835.93286	36.61126	640.12085	46.61205	583.85400	-1011.89575	
888	8.870	-663.77368	-27.42150	-581.21124	751.24731	-15.04255	-496.74838	-734.97748	29.40154	636.70386	835.19421	36.56736	639.98279	45.96746	583.51147	-1012.25098	
889	8.880	-664.14673	-27.38156	-581.34589	750.41656	-15.15952	-496.81268	-736.10376	29.83017	636.58246	834.42261	36.89783	639.93384	45.15651	583.13904	-1012.33167	
890	8.890	-665.03479	-27.48718	-581.28845	749.71088	-15.36203	-496.67014	-736.64209	29.51707	636.54083	833.86853	37.01996	639.83008	44.48188	583.04346	-1012.56281	
891	8.900	-665.52087	-27.84519	-581.03906	749.03534	-15.55818	-496.74518	-737.23712	29.65324	636.58209	833.18781	37.18014	639.72351	43.85435	582.60388	-1012.71191	
892	8.910	-666.45465	-28.02223	-581.14722	748.35748	-15.64733	-496.81308	-737.90863	29.70377	636.38092	832.44104	37.38685	639.79901	43.18394	582.22760	-1012.67828	
893	8.920	-667.25299	-27.98460	-581.24463	747.39923	-15.75877	-497.01685	-738.80365	29.72650	636.14075	831.57428	37.44517	639.76941	42.64299	581.92096	-1012.79333	
894	8.930	-667.95740	-28.27278	-581.10034	746.53174	-15.61481	-497.11435	-739.48059	30.16190	636.31311	830.98285	37.75760	639.65369	41.76616	581.85156	-1012.86780	
895	8.940	-668.82269	-28.39254	-581.25287	746.20227	-15.97893	-496.92310	-740.26099	30.14819	636.28064	830.29144	37.96659	639.73248	40.74751	581.74780	-1013.17517	
896	8.950	-669.43073	-28.61590	-581.33710	745.18774	-16.29002	-497.06848	-741.12781	30.26289	636.22162	829.38507	37.83770	639.80389	39.73252	581.50354	-1013.48132	
897	8.960	-670.34271	-28.59655	-581.41113	744.27393	-16.25915	-496.91687	-741.83514	30.39088	636.30713	828.34741	37.72551	639.71405	39.22135	581.30884	-1013.36554	
898	8.970	-671.26746	-28.64467	-581.40070	743.58911	-16.27839	-497.01828	-742.50604	30.23638	636.35645	827.79846	38.03329	639.60724	38.50836	581.10486	-1013.54663	
899	8.980	-671.86932	-28.68500	-581.42334	743.07404	-16.35054	-496.87656	-743.28833	30.35331	636.36298	826.91901	38.07400	639.57623	37.62984	580.94861	-1013.71185	
900	8.990	-672.73102	-28.85603	-581.42249	742.20697	-16.52234	-496.88800	-744.32062	30.69447	636.29907	826.13959	38.11087	639.57581	36.87726	580.84637	-1014.26514	
901	9.000	-673.41394	-28.92082	-581.47638	741.14850	-16.27870	-497.14377	-744.96417	30.80012	636.24237	825.50354	38.20387	639.52356	36.11312	580.73352	-1014.27936	
902	9.010	-674.41516	-28.94118	-581.51959	740.25824	-16.71635	-497.20639	-745.97430	30.96308	636.12384	824.53198	38.42263	639.37250	35.28768	580.57513	-1014.32587	
903	9.020	-675.31763	-29.03901	-581.37592	739.55853	-16.93234	-497.16626	-746.82715	31.03220	636.18317	823.64587	38.31242	639.45074	34.39798	580.44427	-1014.20905	
904	9.030	-676.13336	-29.27507	-581.45435	738.92859	-16.87865	-496.99503	-747.42352	30.81108	636.07642	822.88751	38.28230	639.39117	33.45732	580.37762	-1014.12537	
905	9.040	-676.81415	-29.30340	-581.51624	737.76941	-16.84665	-497.12146	-748.37659	30.71915	635.85962	821.89069	38.48387	639.20740	32.70879	580.27002	-1014.17566	
906	9.050	-677.54010	-29.24427	-581.44916	736.97510	-16.83251	-497.07629	-749.29095	31.08211	635.98236	821.14893	38.47578	639.26685	32.32492	580.19611	-1013.93811	
907	9.060	-678.73334	-29.40725	-581.71069	736.37292	-16.99163	-497.07315	-750.18268	31.17770	635.97205	820.40118	38.50907	639.32751	31.12619	580.04456	-1013.83154	
908	9.070	-679.36371	-29.51908	-581.46448	735.17798	-17.16525	-497.13135	-751.07111	31.18806	635.90485	819.25214	38.53670	639.27081	30.17508	580.03412	-1013.91138	
909	9.080	-680.25909	-29.58576	-581.62360	734.22638	-17.04718	-497.20724	-752.02686	31.09779	636.10187	818.65375	38.58687	639.38666	29.30036	580.03357	-1014.18829	
910	9.090	-681.18445	-29.46625	-581.59674	733.61871	-17.22775	-497.28137	-752.84247	31.08292	636.02533	817.73602	38.66559	639.48993	28.24645	580.05591	-1014.51587	
911	9.100	-682.20129	-29.52172	-581.52753	732.72363	-17.08269	-497.08438	-753.63232	31.15635	635.98761	816.82092	38.61647	639.49493	27.71764	579.94867	-1014.56958	
912	9.110	-682.98883	-29.52708	-581.46826	731.75732	-17.00557	-497.09998	-754.64551	31.08537	635.78247	815.91827	38.82947	639.37067	26.73500	579.92218	-1014.55084	
913	9.120	-683.91974	-29.38868	-581.53754	730.83228	-17.08236	-497.13126	-755.54962	31.16815	635.78076	814.95020	38.68772	639.49438	25.57032	579.82135	-1014.67035	
914	9.130	-685.06805	-29.26972	-581.60577	729.79486	-17.13162	-497.12430	-756.33643	31.12934	635.89374	813.83459	38.52363	639.46149	24.59025	579.86646	-1014.55249	
915	9.140	-685.92468	-29.31164	-581.51843	728.94977	-17.23767	-497.27444	-757.34845	31.18532	635.91510	813.10602	38.38162	639.29993	23.78786	579.86420	-1014.68726	
916	9.150	-686.73486	-29.46745	-581.64264	727.93201	-17.18037	-497.22656	-758.48352	31.25534	635.97992	812.06622	38.75715	639.35870	22.77489	579.88855	-1014.78784	
917	9.160	-687.61115	-29.22596	-581.56927	727.17584	-17.09399	-497.12305	-759.19513	31.22355	635.95276	811.42676	38.58366	639.33722	22.26619	580.00848	-1014.47742	
918	9.170	-688.60083	-29.23284	-581.53986	726.46826	-16.93622	-497.14322	-760.02344	31.06838	636.02728	810.22229	38.41907	639.47009	21.05566	579.94525	-1014.56427	
919	9.180	-689.47968	-29.39213	-581.57794	725.05969	-16.90147	-497.00839	-761.17181	30.95758	636.06671	809.06342	38.09837	639.40839	19.99618	579.99512	-1014.42352	
920	9.190	-690.32928	-29.42785	-581.59631	724.35840	-16.96804	-497.04999	-761.92200	30.86581	636.05157	808.25378	37.95336	639.42053	19.10729	580.14001	-1014.29828	
921	9.200	-691.42413	-29.16279	-581.48035	723.44427	-16.97132	-496.96268	-762.86383	30.64126	635.85205	807.26019	38.30549	639.45581	18.39046	580.27740	-1013.82825	
922	9.210	-692.32654	-28.91169	-581.48956	722.24786	-16.82595	-497.03058	-764.00482	30.69085	636.10376	806.43323	38.06359	639.56818	17.43143	580.51782	-1013.63477	
923	9.220	-693.52557	-28.76250	-581.47217	721.35608	-16.44762	-497.11633	-764.79407	30.64968	636.10577	805.63489	37.98542	639.44666	16.36514	580.67883	-1013.91956	
